<svg id="Calque_1" data-name="Calque 1" xmlns="http://www.w3.org/2000/svg" viewBox="0 0 471.99 236.74"><defs><style>.cls-1{fill:#1d1d1b;}</style></defs><title>Header</title><path class="cls-1" d="M256.59,412.6v37.2H235V412.75c0-2.62-1.24-3.86-3.86-3.86h-5.41V449.8H204.1V341.74h32.27c13.43,0,20.06,6.64,20.06,20.07v20.84c0,9.26-3.39,13.89-9.26,16.05C253.81,400.56,256.59,404.72,256.59,412.6Zm-25.63-52h-5.25v29.95H231c2.63,0,3.86-1.23,3.86-3.86V364.43C234.82,361.81,233.59,360.57,231,360.57Z" transform="translate(-203.79 -321.67)"/><path class="cls-1" d="M301.7,341.74V361H283.17v24.23h17.76v19.3H283.17V430.5H302v19.3H261.56V341.74ZM281,321.67h19.92l-12.2,14.67H274.06Z" transform="translate(-203.79 -321.67)"/><path class="cls-1" d="M324.13,378.33V449.8H306.84V341.74H338l6.18,65.45,6.63-65.45h31.34V449.8h-21.3V379.1l-8.18,70.7H332.31Z" transform="translate(-203.79 -321.67)"/><path class="cls-1" d="M409.28,449.8H387.67V341.74h21.61Z" transform="translate(-203.79 -321.67)"/><path class="cls-1" d="M459.76,449.8H438.15V341.74h31.64c13.43,0,20.07,6.64,20.07,20.07v30.41c0,13.43-6.64,20.07-20.07,20.07h-10Zm4.63-89.53h-4.63v33.49h4.63c2.63,0,3.86-1.23,3.86-3.86V364.13C468.25,361.5,467,360.27,464.39,360.27Z" transform="translate(-203.79 -321.67)"/><path class="cls-1" d="M534.42,341.74V361H515.89v24.23h17.75v19.3H515.89V430.5h18.83v19.3H494.28V341.74Zm-20.69-20.07h19.91l-12.19,14.67H506.78Z" transform="translate(-203.79 -321.67)"/><path class="cls-1" d="M561.17,449.8H539.56V341.74H571.2c13.43,0,20.07,6.64,20.07,20.07v30.41c0,13.43-6.64,20.07-20.07,20.07h-10Zm4.63-89.53h-4.63v33.49h4.63c2.63,0,3.86-1.23,3.86-3.86V364.13C569.66,361.5,568.43,360.27,565.8,360.27Z" transform="translate(-203.79 -321.67)"/><path class="cls-1" d="M617.36,449.8H595.75V341.74h21.61Z" transform="translate(-203.79 -321.67)"/><path class="cls-1" d="M654.49,449.8,640.75,391l.31,27.47.31,31.34H622.69V341.74h22.07l12.51,53.57L657,364.13l-.16-22.39h18.68V449.8Z" transform="translate(-203.79 -321.67)"/><path class="cls-1" d="M229.88,514.57V496.51h27.94v41.83c0,13.43-6.64,20.07-20.07,20.07H223.86c-13.43,0-20.07-6.64-20.07-20.07V468.57c0-13.43,6.64-20.07,20.07-20.07h13.59c13.43,0,20.06,6.64,20.06,20.07v20.68h-21.3V470.88c0-2.62-1.23-3.86-3.86-3.86h-3.09c-2.62,0-3.85,1.24-3.85,3.86V536c0,2.62,1.23,3.86,3.85,3.86h3.55c2.63,0,3.86-1.24,3.86-3.86V514.57Z" transform="translate(-203.79 -321.67)"/><path class="cls-1" d="M316,520.28v37.2H294.37v-37c0-2.63-1.24-3.86-3.86-3.86H285.1v40.9H263.49v-108h32.26c13.44,0,20.07,6.63,20.07,20.06v20.84c0,9.27-3.39,13.9-9.26,16.06C313.2,508.24,316,512.41,316,520.28Zm-25.63-52H285.1v29.95h5.25c2.63,0,3.86-1.24,3.86-3.86V472.12C294.21,469.49,293,468.26,290.35,468.26Z" transform="translate(-203.79 -321.67)"/><path class="cls-1" d="M356.61,557.48l-1.7-15.74H341.33l-1.55,15.74h-19.6l14.2-108h29.48l14.21,108.05ZM343.33,522.9h9.57l-4.78-47.08Z" transform="translate(-203.79 -321.67)"/><path class="cls-1" d="M404.1,557.48H382.49v-108h31.64c13.43,0,20.07,6.63,20.07,20.06V499.9c0,13.43-6.64,20.07-20.07,20.07h-10ZM408.73,468H404.1v33.5h4.63c2.62,0,3.86-1.24,3.86-3.86V471.81C412.59,469.19,411.35,468,408.73,468Z" transform="translate(-203.79 -321.67)"/><path class="cls-1" d="M471.65,493V449.43h21.61V557.48H471.65V512.25h-10.8v45.23H439.23v-108h21.62V493Z" transform="translate(-203.79 -321.67)"/><path class="cls-1" d="M520.91,557.48H499.3v-108h21.61Z" transform="translate(-203.79 -321.67)"/><path class="cls-1" d="M578.59,518.43v19.91c0,13.43-6.64,20.07-20.07,20.07h-12c-13.43,0-20.07-6.64-20.07-20.07v-23h21.15v21c0,2.62,1.23,3.85,3.86,3.85h2c2.63,0,3.86-1.23,3.86-3.85v-13c0-3.4-1.08-5.09-3.7-7l-18.53-13.74c-6.63-4.78-8.64-9.26-8.64-17V468.57c0-13.43,6.64-20.07,20.07-20.07h11.73c13.43,0,20.07,6.64,20.07,20.07v19.76H557.13V470.57c0-2.62-1.24-3.85-3.86-3.85h-1.7c-2.62,0-3.86,1.23-3.86,3.85v10.19c0,3.4,1.08,5.1,3.71,6.95l18.52,13.74C576.58,506.23,578.59,510.4,578.59,518.43Z" transform="translate(-203.79 -321.67)"/><path class="cls-1" d="M595.74,557.48V468.72H582.62V449.43h47.85v19.29H617.35v88.76Z" transform="translate(-203.79 -321.67)"/><path class="cls-1" d="M675.48,449.43v19.29H657V493h17.75v19.29H657v25.94h18.83v19.29H635.34v-108Z" transform="translate(-203.79 -321.67)"/></svg>